<svg width="2000" height="1117" viewBox="0 0 2000 1117" fill="none" xmlns="http://www.w3.org/2000/svg">
<g clip-path="url(#clip0_200_3356)">
<rect width="2000" height="1117" fill="white"/>
<rect width="2000" height="1117" fill="white"/>
<path d="M0 544H2000V604L0 815V544Z" fill="#E3D8EE"/>
<path d="M0 0H2000V587L0 798V0Z" fill="#172755"/>
<mask id="mask0_200_3356" style="mask-type:alpha" maskUnits="userSpaceOnUse" x="0" y="0" width="2000" height="799">
<path d="M0 0.000549316H2000V587.001L0 798.001V0.000549316Z" fill="#172755"/>
</mask>
<g mask="url(#mask0_200_3356)">
<g opacity="0.07">
<path d="M2032.47 274.986C1902.93 85.9875 1685.44 -37.9993 1439 -37.9993C1041.91 -37.9993 720 283.908 720 681.001C720 738.772 726.814 794.951 739.681 848.78L1105.82 482.637C1140.92 447.538 1197.83 447.538 1232.93 482.637L1528.88 778.586L2032.47 274.986Z" fill="#8794BA" fill-opacity="0.49"/>
<path d="M2117.93 443.735L1592.43 969.24C1557.33 1004.34 1500.42 1004.34 1465.32 969.24L1169.38 673.291L811.104 1031.56C934.1 1251.39 1169.2 1400 1439 1400C1836.09 1400 2158 1078.09 2158 681.001C2158 597.861 2143.89 518.018 2117.93 443.735Z" fill="#8794BA" fill-opacity="0.49"/>
</g>
</g>
<g opacity="0.07">
<path d="M702.387 -117.349C642.928 -204.094 543.11 -261 430 -261C247.746 -261 100 -113.254 100 69C100 95.5152 103.127 121.3 109.033 146.006L277.082 -22.0432C293.191 -38.1524 319.309 -38.1524 335.418 -22.0432L471.25 113.789L702.387 -117.349Z" fill="#8794BA"/>
<path d="M741.609 -39.8981L500.418 201.293C484.309 217.402 458.191 217.402 442.082 201.293L306.25 65.4614L141.814 229.897C198.266 330.793 306.168 399 430 399C612.254 399 760 251.254 760 69C760 30.8414 753.523 -5.80434 741.609 -39.8981Z" fill="#8794BA" fill-opacity="0.45"/>
</g>
</g>
<defs>
<clipPath id="clip0_200_3356">
<rect width="2000" height="1117" fill="white"/>
</clipPath>
</defs>
</svg>
